<svg width="343" height="90" viewBox="0 0 343 90" fill="none" xmlns="http://www.w3.org/2000/svg">
<path d="M0 10C0 4.47715 4.47715 0 10 0H35V90H0V10Z" fill="#D9D9D9"/>
<path d="M74 29C74 23.4772 78.4772 19 84 19H99C104.523 19 109 23.4772 109 29V80C109 85.5228 104.523 90 99 90H84C78.4772 90 74 85.5228 74 80V29Z" fill="#D9D9D9"/>
<path d="M113 17.5C113 7.83501 120.835 0 130.5 0H148V80C148 85.5228 143.523 90 138 90H123C117.477 90 113 85.5228 113 80V17.5Z" fill="#D9D9D9"/>
<path d="M152 0H169.5C179.165 0 187 7.83502 187 17.5V80C187 85.5228 182.523 90 177 90H162C156.477 90 152 85.5228 152 80V0Z" fill="#D9D9D9"/>
<path d="M191 10C191 4.47715 195.477 0 201 0H208.5C218.165 0 226 7.83502 226 17.5V90H201C195.477 90 191 85.5228 191 80V10Z" fill="#D9D9D9"/>
<path d="M230 0H255C260.523 0 265 4.47715 265 10V80C265 85.5228 260.523 90 255 90H247.5C237.835 90 230 82.165 230 72.5V0Z" fill="#D9D9D9"/>
<path d="M196 30.5991L224.296 9.99999L261.21 60.7074L232.914 81.3065L196 30.5991Z" fill="#D9D9D9"/>
<path d="M269 17.5C269 7.83501 276.835 0 286.5 0H304V90H286.5C276.835 90 269 82.165 269 72.5V17.5Z" fill="#D9D9D9"/>
<path d="M308 0H325.5C335.165 0 343 7.83502 343 17.5V72.5C343 82.165 335.165 90 325.5 90H308V0Z" fill="#D9D9D9"/>
<path d="M74 7.5C74 3.35786 77.3579 0 81.5 0H101.5C105.642 0 109 3.35786 109 7.5V7.5C109 11.6421 105.642 15 101.5 15H81.5C77.3579 15 74 11.6421 74 7.5V7.5Z" fill="#D9D9D9"/>
<path d="M35 0H52.5C62.165 0 70 7.83502 70 17.5V38.5C70 48.165 62.165 56 52.5 56H35V0Z" fill="#D9D9D9"/>
<rect x="27" y="15" width="16" height="27" rx="5" fill="black"/>
<rect x="64" y="15" width="16" height="28" rx="5" fill="black"/>
<rect x="148" width="4" height="56" fill="#D9D9D9"/>
<rect x="304" y="56" width="4" height="34" fill="#D9D9D9"/>
<rect x="304" width="4" height="34" fill="#D9D9D9"/>
<rect x="300" width="4" height="34" fill="#D9D9D9"/>
<rect x="142" y="15" width="16" height="27" rx="5" fill="black"/>
<rect x="218" y="15" width="16" height="27" rx="5" fill="black"/>
<rect x="298" y="15" width="16" height="41" rx="5" fill="black"/>
<rect x="181" y="15" width="16" height="28" rx="5" fill="black"/>
</svg>
